# Blender v2.82 (sub 7) OBJ File: ''
# www.blender.org
mtllib GrappleHook.mtl
o GrappleHook_Cone.001
v -0.000613 0.182506 -0.086899
v 0.016888 0.182506 -0.085176
v 0.033716 0.182506 -0.080071
v 0.049225 0.182506 -0.071781
v 0.062819 0.182506 -0.060625
v 0.073975 0.182506 -0.047031
v 0.082265 0.182506 -0.031523
v 0.087369 0.182506 -0.014694
v 0.089093 0.182506 0.002806
v 0.087369 0.182506 0.020307
v 0.082265 0.182506 0.037135
v 0.073975 0.182506 0.052644
v 0.062819 0.182506 0.066238
v 0.049225 0.182506 0.077394
v 0.033716 0.182506 0.085684
v 0.016888 0.182506 0.090788
v -0.000613 0.182506 0.092512
v -0.018113 0.182506 0.090788
v -0.034942 0.182506 0.085684
v -0.050450 0.182506 0.077394
v -0.064044 0.182506 0.066238
v -0.075200 0.182506 0.052644
v -0.083490 0.182506 0.037135
v -0.000613 0.361917 0.002806
v -0.088595 0.182506 0.020307
v -0.090318 0.182506 0.002806
v -0.088595 0.182506 -0.014694
v -0.083490 0.182506 -0.031523
v -0.075200 0.182506 -0.047032
v -0.064044 0.182506 -0.060625
v -0.050450 0.182506 -0.071781
v -0.034941 0.182506 -0.080071
v -0.018113 0.182506 -0.085176
v -0.010851 -0.004010 -0.177994
v -0.010851 0.200389 -0.051856
v -0.010851 0.010710 -0.201847
v -0.010851 0.215109 -0.075709
v 0.013103 -0.004010 -0.177994
v 0.013103 0.200389 -0.051856
v 0.013103 0.010710 -0.201847
v 0.013103 0.215109 -0.075709
v 0.011531 -0.006622 0.177329
v 0.011380 0.199609 0.054209
v 0.011560 0.007746 0.201396
v 0.011409 0.213977 0.078276
v -0.012423 -0.006622 0.177358
v -0.012574 0.199609 0.054239
v -0.012394 0.007746 0.201425
v -0.012545 0.213977 0.078305
v -0.178058 -0.004010 0.011267
v -0.051920 0.200389 0.011341
v -0.201911 0.010710 0.011253
v -0.075773 0.215109 0.011327
v -0.178044 -0.004010 -0.012687
v -0.051906 0.200389 -0.012613
v -0.201897 0.010710 -0.012701
v -0.075759 0.215109 -0.012627
v 0.178514 -0.004010 -0.010793
v 0.052376 0.200389 -0.010793
v 0.202367 0.010710 -0.010793
v 0.076229 0.215109 -0.010793
v 0.178514 -0.004010 0.013160
v 0.052376 0.200389 0.013160
v 0.202367 0.010710 0.013160
v 0.076229 0.215109 0.013160
v -0.001785 0.181929 0.020629
v -0.001785 -0.022171 0.020629
v -0.005216 0.181929 0.020291
v -0.005216 -0.022171 0.020291
v -0.008515 0.181929 0.019291
v -0.008515 -0.022171 0.019291
v -0.011555 0.181929 0.017666
v -0.011555 -0.022171 0.017666
v -0.014220 0.181929 0.015479
v -0.014220 -0.022171 0.015479
v -0.016407 0.181929 0.012814
v -0.016407 -0.022171 0.012814
v -0.018032 0.181929 0.009773
v -0.018032 -0.022171 0.009773
v -0.019033 0.181929 0.006475
v -0.019033 -0.022171 0.006475
v -0.019371 0.181929 0.003044
v -0.019371 -0.022171 0.003044
v -0.019033 0.181929 -0.000387
v -0.019033 -0.022171 -0.000387
v -0.018032 0.181929 -0.003686
v -0.018032 -0.022171 -0.003686
v -0.016407 0.181929 -0.006726
v -0.016407 -0.022171 -0.006726
v -0.014220 0.181929 -0.009391
v -0.014220 -0.022171 -0.009391
v -0.011555 0.181929 -0.011578
v -0.011555 -0.022171 -0.011578
v -0.008515 0.181929 -0.013203
v -0.008515 -0.022171 -0.013203
v -0.005216 0.181929 -0.014204
v -0.005216 -0.022171 -0.014204
v -0.001785 0.181929 -0.014542
v -0.001785 -0.022171 -0.014542
v 0.001646 0.181929 -0.014204
v 0.001646 -0.022171 -0.014204
v 0.004945 0.181929 -0.013203
v 0.004945 -0.022171 -0.013203
v 0.007985 0.181929 -0.011578
v 0.007985 -0.022171 -0.011578
v 0.010650 0.181929 -0.009391
v 0.010650 -0.022171 -0.009391
v 0.012837 0.181929 -0.006726
v 0.012837 -0.022171 -0.006726
v 0.014462 0.181929 -0.003686
v 0.014462 -0.022171 -0.003686
v 0.015462 0.181929 -0.000387
v 0.015462 -0.022171 -0.000387
v 0.015800 0.181929 0.003044
v 0.015800 -0.022171 0.003044
v 0.015462 0.181929 0.006475
v 0.015462 -0.022171 0.006475
v 0.014462 0.181929 0.009774
v 0.014462 -0.022171 0.009774
v 0.012837 0.181929 0.012814
v 0.012837 -0.022171 0.012814
v 0.010650 0.181929 0.015479
v 0.010650 -0.022171 0.015479
v 0.007985 0.181929 0.017666
v 0.007985 -0.022171 0.017666
v 0.004945 0.181929 0.019291
v 0.004945 -0.022171 0.019291
v 0.001646 0.181929 0.020291
v 0.001646 -0.022171 0.020291
vt 0.250000 0.490000
vt 0.250000 0.250000
vt 0.296822 0.485388
vt 0.341844 0.471731
vt 0.383337 0.449553
vt 0.419706 0.419706
vt 0.449553 0.383337
vt 0.471731 0.341844
vt 0.485388 0.296822
vt 0.490000 0.250000
vt 0.485388 0.203178
vt 0.471731 0.158156
vt 0.449553 0.116663
vt 0.419706 0.080294
vt 0.383337 0.050447
vt 0.341844 0.028269
vt 0.296822 0.014612
vt 0.250000 0.010000
vt 0.203178 0.014612
vt 0.158156 0.028269
vt 0.116663 0.050447
vt 0.080294 0.080294
vt 0.050447 0.116663
vt 0.028269 0.158156
vt 0.014611 0.203179
vt 0.010000 0.250000
vt 0.014612 0.296822
vt 0.028269 0.341844
vt 0.050447 0.383337
vt 0.080295 0.419706
vt 0.116663 0.449553
vt 0.158156 0.471731
vt 0.203179 0.485389
vt 0.750000 0.490000
vt 0.796822 0.485388
vt 0.841844 0.471731
vt 0.883337 0.449553
vt 0.919706 0.419706
vt 0.949553 0.383337
vt 0.971731 0.341844
vt 0.985388 0.296822
vt 0.990000 0.250000
vt 0.985388 0.203178
vt 0.971731 0.158156
vt 0.949553 0.116663
vt 0.919706 0.080294
vt 0.883337 0.050447
vt 0.841844 0.028269
vt 0.796822 0.014612
vt 0.750000 0.010000
vt 0.703178 0.014612
vt 0.658156 0.028269
vt 0.616663 0.050447
vt 0.580294 0.080294
vt 0.550447 0.116663
vt 0.528269 0.158156
vt 0.514611 0.203179
vt 0.510000 0.250000
vt 0.514612 0.296822
vt 0.528269 0.341844
vt 0.550447 0.383337
vt 0.580295 0.419706
vt 0.616663 0.449553
vt 0.658156 0.471731
vt 0.703179 0.485389
vt 0.375000 0.000000
vt 0.625000 0.000000
vt 0.625000 0.250000
vt 0.375000 0.250000
vt 0.625000 0.500000
vt 0.375000 0.500000
vt 0.625000 0.750000
vt 0.375000 0.750000
vt 0.625000 1.000000
vt 0.375000 1.000000
vt 0.125000 0.500000
vt 0.125000 0.750000
vt 0.875000 0.500000
vt 0.875000 0.750000
vt 0.375000 0.000000
vt 0.625000 0.000000
vt 0.625000 0.250000
vt 0.375000 0.250000
vt 0.625000 0.500000
vt 0.375000 0.500000
vt 0.625000 0.750000
vt 0.375000 0.750000
vt 0.625000 1.000000
vt 0.375000 1.000000
vt 0.125000 0.500000
vt 0.125000 0.750000
vt 0.875000 0.500000
vt 0.875000 0.750000
vt 0.375000 0.000000
vt 0.625000 0.000000
vt 0.625000 0.250000
vt 0.375000 0.250000
vt 0.625000 0.500000
vt 0.375000 0.500000
vt 0.625000 0.750000
vt 0.375000 0.750000
vt 0.625000 1.000000
vt 0.375000 1.000000
vt 0.125000 0.500000
vt 0.125000 0.750000
vt 0.875000 0.500000
vt 0.875000 0.750000
vt 0.375000 0.000000
vt 0.625000 0.000000
vt 0.625000 0.250000
vt 0.375000 0.250000
vt 0.625000 0.500000
vt 0.375000 0.500000
vt 0.625000 0.750000
vt 0.375000 0.750000
vt 0.625000 1.000000
vt 0.375000 1.000000
vt 0.125000 0.500000
vt 0.125000 0.750000
vt 0.875000 0.500000
vt 0.875000 0.750000
vt 1.000000 0.500000
vt 1.000000 1.000000
vt 0.968750 1.000000
vt 0.968750 0.500000
vt 0.937500 1.000000
vt 0.937500 0.500000
vt 0.906250 1.000000
vt 0.906250 0.500000
vt 0.875000 1.000000
vt 0.875000 0.500000
vt 0.843750 1.000000
vt 0.843750 0.500000
vt 0.812500 1.000000
vt 0.812500 0.500000
vt 0.781250 1.000000
vt 0.781250 0.500000
vt 0.750000 1.000000
vt 0.750000 0.500000
vt 0.718750 1.000000
vt 0.718750 0.500000
vt 0.687500 1.000000
vt 0.687500 0.500000
vt 0.656250 1.000000
vt 0.656250 0.500000
vt 0.625000 1.000000
vt 0.625000 0.500000
vt 0.593750 1.000000
vt 0.593750 0.500000
vt 0.562500 1.000000
vt 0.562500 0.500000
vt 0.531250 1.000000
vt 0.531250 0.500000
vt 0.500000 1.000000
vt 0.500000 0.500000
vt 0.468750 1.000000
vt 0.468750 0.500000
vt 0.437500 1.000000
vt 0.437500 0.500000
vt 0.406250 1.000000
vt 0.406250 0.500000
vt 0.375000 1.000000
vt 0.375000 0.500000
vt 0.343750 1.000000
vt 0.343750 0.500000
vt 0.312500 1.000000
vt 0.312500 0.500000
vt 0.281250 1.000000
vt 0.281250 0.500000
vt 0.250000 1.000000
vt 0.250000 0.500000
vt 0.218750 1.000000
vt 0.218750 0.500000
vt 0.187500 1.000000
vt 0.187500 0.500000
vt 0.156250 1.000000
vt 0.156250 0.500000
vt 0.125000 1.000000
vt 0.125000 0.500000
vt 0.093750 1.000000
vt 0.093750 0.500000
vt 0.062500 1.000000
vt 0.062500 0.500000
vt 0.296822 0.485388
vt 0.250000 0.490000
vt 0.203179 0.485389
vt 0.158156 0.471731
vt 0.116663 0.449553
vt 0.080295 0.419706
vt 0.050447 0.383337
vt 0.028269 0.341844
vt 0.014612 0.296822
vt 0.010000 0.250000
vt 0.014611 0.203179
vt 0.028269 0.158156
vt 0.050447 0.116663
vt 0.080294 0.080294
vt 0.116663 0.050447
vt 0.158156 0.028269
vt 0.203178 0.014612
vt 0.250000 0.010000
vt 0.296822 0.014612
vt 0.341844 0.028269
vt 0.383337 0.050447
vt 0.419706 0.080294
vt 0.449553 0.116663
vt 0.471731 0.158156
vt 0.485388 0.203178
vt 0.490000 0.250000
vt 0.485388 0.296822
vt 0.471731 0.341844
vt 0.449553 0.383337
vt 0.419706 0.419706
vt 0.383337 0.449553
vt 0.341844 0.471731
vt 0.031250 1.000000
vt 0.031250 0.500000
vt 0.000000 1.000000
vt 0.000000 0.500000
vt 0.750000 0.490000
vt 0.796822 0.485388
vt 0.841844 0.471731
vt 0.883337 0.449553
vt 0.919706 0.419706
vt 0.949553 0.383337
vt 0.971731 0.341844
vt 0.985388 0.296822
vt 0.990000 0.250000
vt 0.985388 0.203178
vt 0.971731 0.158156
vt 0.949553 0.116663
vt 0.919706 0.080294
vt 0.883337 0.050447
vt 0.841844 0.028269
vt 0.796822 0.014612
vt 0.750000 0.010000
vt 0.703178 0.014612
vt 0.658156 0.028269
vt 0.616663 0.050447
vt 0.580294 0.080294
vt 0.550447 0.116663
vt 0.528269 0.158156
vt 0.514611 0.203179
vt 0.510000 0.250000
vt 0.514612 0.296822
vt 0.528269 0.341844
vt 0.550447 0.383337
vt 0.580295 0.419706
vt 0.616663 0.449553
vt 0.658156 0.471731
vt 0.703179 0.485389
vn 0.0878 0.4455 -0.8910
vn 0.2599 0.4455 -0.8567
vn 0.4220 0.4455 -0.7896
vn 0.5680 0.4455 -0.6921
vn 0.6921 0.4455 -0.5680
vn 0.7896 0.4455 -0.4220
vn 0.8567 0.4455 -0.2599
vn 0.8910 0.4455 -0.0878
vn 0.8910 0.4455 0.0878
vn 0.8567 0.4455 0.2599
vn 0.7896 0.4455 0.4220
vn 0.6921 0.4455 0.5680
vn 0.5680 0.4455 0.6921
vn 0.4220 0.4455 0.7896
vn 0.2599 0.4455 0.8567
vn 0.0878 0.4455 0.8910
vn -0.0878 0.4455 0.8910
vn -0.2599 0.4455 0.8567
vn -0.4220 0.4455 0.7896
vn -0.5680 0.4455 0.6921
vn -0.6921 0.4455 0.5680
vn -0.7896 0.4455 0.4220
vn -0.8567 0.4455 0.2599
vn -0.8910 0.4455 0.0878
vn -0.8910 0.4455 -0.0878
vn -0.8567 0.4455 -0.2599
vn -0.7896 0.4455 -0.4220
vn -0.6921 0.4455 -0.5680
vn -0.5680 0.4455 -0.6921
vn -0.4220 0.4455 -0.7896
vn -0.2599 0.4455 -0.8567
vn -0.0878 0.4455 -0.8910
vn 0.0000 -1.0000 -0.0000
vn -1.0000 0.0000 0.0000
vn 0.0000 0.5252 -0.8510
vn 1.0000 0.0000 0.0000
vn 0.0000 -0.5252 0.8510
vn 0.0000 -0.8510 -0.5252
vn 0.0000 0.8510 0.5252
vn 1.0000 0.0000 -0.0012
vn 0.0011 0.5126 0.8586
vn -1.0000 0.0000 0.0012
vn -0.0011 -0.5126 -0.8586
vn 0.0006 -0.8586 0.5126
vn -0.0006 0.8586 -0.5126
vn -0.0006 0.0000 1.0000
vn -0.8510 0.5252 -0.0005
vn 0.0006 -0.0000 -1.0000
vn 0.8510 -0.5252 0.0005
vn -0.5252 -0.8510 -0.0003
vn 0.5252 0.8510 0.0003
vn 0.0000 -0.0000 -1.0000
vn 0.8510 0.5252 0.0000
vn -0.0000 -0.0000 1.0000
vn -0.8510 -0.5252 0.0000
vn 0.5252 -0.8510 0.0000
vn -0.5252 0.8510 0.0000
vn 0.0980 0.0000 -0.9952
vn 0.2903 0.0000 -0.9569
vn 0.4714 0.0000 -0.8819
vn 0.6344 0.0000 -0.7730
vn 0.7730 0.0000 -0.6344
vn 0.8819 0.0000 -0.4714
vn 0.9569 0.0000 -0.2903
vn 0.9952 0.0000 -0.0980
vn 0.9952 0.0000 0.0980
vn 0.9569 0.0000 0.2903
vn 0.8819 0.0000 0.4714
vn 0.7730 0.0000 0.6344
vn 0.6344 0.0000 0.7730
vn 0.4714 0.0000 0.8819
vn 0.2903 0.0000 0.9569
vn 0.0980 0.0000 0.9952
vn -0.0980 0.0000 0.9952
vn -0.2903 0.0000 0.9569
vn -0.4714 0.0000 0.8819
vn -0.6344 0.0000 0.7730
vn -0.7730 0.0000 0.6344
vn -0.8819 0.0000 0.4714
vn -0.9569 0.0000 0.2903
vn -0.9952 0.0000 0.0980
vn -0.9952 0.0000 -0.0980
vn -0.9569 0.0000 -0.2903
vn -0.8819 0.0000 -0.4714
vn -0.7730 0.0000 -0.6344
vn -0.6344 0.0000 -0.7730
vn -0.4714 0.0000 -0.8819
vn 0.0000 1.0000 0.0000
vn -0.2903 0.0000 -0.9569
vn -0.0980 0.0000 -0.9952
usemtl None
s off
f 1/1/1 24/2/1 2/3/1
f 2/3/2 24/2/2 3/4/2
f 3/4/3 24/2/3 4/5/3
f 4/5/4 24/2/4 5/6/4
f 5/6/5 24/2/5 6/7/5
f 6/7/6 24/2/6 7/8/6
f 7/8/7 24/2/7 8/9/7
f 8/9/8 24/2/8 9/10/8
f 9/10/9 24/2/9 10/11/9
f 10/11/10 24/2/10 11/12/10
f 11/12/11 24/2/11 12/13/11
f 12/13/12 24/2/12 13/14/12
f 13/14/13 24/2/13 14/15/13
f 14/15/14 24/2/14 15/16/14
f 15/16/15 24/2/15 16/17/15
f 16/17/16 24/2/16 17/18/16
f 17/18/17 24/2/17 18/19/17
f 18/19/18 24/2/18 19/20/18
f 19/20/19 24/2/19 20/21/19
f 20/21/20 24/2/20 21/22/20
f 21/22/21 24/2/21 22/23/21
f 22/23/22 24/2/22 23/24/22
f 23/24/23 24/2/23 25/25/23
f 25/25/24 24/2/24 26/26/24
f 26/26/25 24/2/25 27/27/25
f 27/27/26 24/2/26 28/28/26
f 28/28/27 24/2/27 29/29/27
f 29/29/28 24/2/28 30/30/28
f 30/30/29 24/2/29 31/31/29
f 31/31/30 24/2/30 32/32/30
f 32/32/31 24/2/31 33/33/31
f 33/33/32 24/2/32 1/1/32
f 1/34/33 2/35/33 3/36/33 4/37/33 5/38/33 6/39/33 7/40/33 8/41/33 9/42/33 10/43/33 11/44/33 12/45/33 13/46/33 14/47/33 15/48/33 16/49/33 17/50/33 18/51/33 19/52/33 20/53/33 21/54/33 22/55/33 23/56/33 25/57/33 26/58/33 27/59/33 28/60/33 29/61/33 30/62/33 31/63/33 32/64/33 33/65/33
f 34/66/34 35/67/34 37/68/34 36/69/34
f 36/69/35 37/68/35 41/70/35 40/71/35
f 40/71/36 41/70/36 39/72/36 38/73/36
f 38/73/37 39/72/37 35/74/37 34/75/37
f 36/76/38 40/71/38 38/73/38 34/77/38
f 41/70/39 37/78/39 35/79/39 39/72/39
f 42/80/40 43/81/40 45/82/40 44/83/40
f 44/83/41 45/82/41 49/84/41 48/85/41
f 48/85/42 49/84/42 47/86/42 46/87/42
f 46/87/43 47/86/43 43/88/43 42/89/43
f 44/90/44 48/85/44 46/87/44 42/91/44
f 49/84/45 45/92/45 43/93/45 47/86/45
f 50/94/46 51/95/46 53/96/46 52/97/46
f 52/97/47 53/96/47 57/98/47 56/99/47
f 56/99/48 57/98/48 55/100/48 54/101/48
f 54/101/49 55/100/49 51/102/49 50/103/49
f 52/104/50 56/99/50 54/101/50 50/105/50
f 57/98/51 53/106/51 51/107/51 55/100/51
f 58/108/52 59/109/52 61/110/52 60/111/52
f 60/111/53 61/110/53 65/112/53 64/113/53
f 64/113/54 65/112/54 63/114/54 62/115/54
f 62/115/55 63/114/55 59/116/55 58/117/55
f 60/118/56 64/113/56 62/115/56 58/119/56
f 65/112/57 61/120/57 59/121/57 63/114/57
f 66/122/58 67/123/58 69/124/58 68/125/58
f 68/125/59 69/124/59 71/126/59 70/127/59
f 70/127/60 71/126/60 73/128/60 72/129/60
f 72/129/61 73/128/61 75/130/61 74/131/61
f 74/131/62 75/130/62 77/132/62 76/133/62
f 76/133/63 77/132/63 79/134/63 78/135/63
f 78/135/64 79/134/64 81/136/64 80/137/64
f 80/137/65 81/136/65 83/138/65 82/139/65
f 82/139/66 83/138/66 85/140/66 84/141/66
f 84/141/67 85/140/67 87/142/67 86/143/67
f 86/143/68 87/142/68 89/144/68 88/145/68
f 88/145/69 89/144/69 91/146/69 90/147/69
f 90/147/70 91/146/70 93/148/70 92/149/70
f 92/149/71 93/148/71 95/150/71 94/151/71
f 94/151/72 95/150/72 97/152/72 96/153/72
f 96/153/73 97/152/73 99/154/73 98/155/73
f 98/155/74 99/154/74 101/156/74 100/157/74
f 100/157/75 101/156/75 103/158/75 102/159/75
f 102/159/76 103/158/76 105/160/76 104/161/76
f 104/161/77 105/160/77 107/162/77 106/163/77
f 106/163/78 107/162/78 109/164/78 108/165/78
f 108/165/79 109/164/79 111/166/79 110/167/79
f 110/167/80 111/166/80 113/168/80 112/169/80
f 112/169/81 113/168/81 115/170/81 114/171/81
f 114/171/82 115/170/82 117/172/82 116/173/82
f 116/173/83 117/172/83 119/174/83 118/175/83
f 118/175/84 119/174/84 121/176/84 120/177/84
f 120/177/85 121/176/85 123/178/85 122/179/85
f 122/179/86 123/178/86 125/180/86 124/181/86
f 124/181/87 125/180/87 127/182/87 126/183/87
f 69/184/88 67/185/88 129/186/88 127/187/88 125/188/88 123/189/88 121/190/88 119/191/88 117/192/88 115/193/88 113/194/88 111/195/88 109/196/88 107/197/88 105/198/88 103/199/88 101/200/88 99/201/88 97/202/88 95/203/88 93/204/88 91/205/88 89/206/88 87/207/88 85/208/88 83/209/88 81/210/88 79/211/88 77/212/88 75/213/88 73/214/88 71/215/88
f 126/183/89 127/182/89 129/216/89 128/217/89
f 128/217/90 129/216/90 67/218/90 66/219/90
f 66/220/33 68/221/33 70/222/33 72/223/33 74/224/33 76/225/33 78/226/33 80/227/33 82/228/33 84/229/33 86/230/33 88/231/33 90/232/33 92/233/33 94/234/33 96/235/33 98/236/33 100/237/33 102/238/33 104/239/33 106/240/33 108/241/33 110/242/33 112/243/33 114/244/33 116/245/33 118/246/33 120/247/33 122/248/33 124/249/33 126/250/33 128/251/33
