# Blender v2.81 (sub 16) OBJ File: 'trashcan.blend'
# www.blender.org
mtllib trashcan.mtl
o Cylinder
v 0.000000 -1.000000 -1.000000
v -0.000000 1.472073 -1.017704
v 0.195090 -1.000000 -0.980785
v 0.198544 1.472073 -0.998149
v 0.382683 -1.000000 -0.923880
v 0.389459 1.472073 -0.940236
v 0.555570 -1.000000 -0.831470
v 0.565406 1.472073 -0.846190
v 0.707107 -1.000000 -0.707107
v 0.719626 1.472073 -0.719626
v 0.831470 -1.000000 -0.555570
v 0.846190 1.472073 -0.565406
v 0.923880 -1.000000 -0.382683
v 0.940236 1.472073 -0.389459
v 0.980785 -1.000000 -0.195090
v 0.998149 1.472073 -0.198544
v 1.000000 -1.000000 -0.000000
v 1.017704 1.472073 -0.000000
v 0.980785 -1.000000 0.195090
v 0.998149 1.472073 0.198544
v 0.923880 -1.000000 0.382683
v 0.940236 1.472073 0.389458
v 0.831470 -1.000000 0.555570
v 0.846190 1.472073 0.565406
v 0.707107 -1.000000 0.707107
v 0.719626 1.472073 0.719626
v 0.555570 -1.000000 0.831470
v 0.565406 1.472073 0.846190
v 0.382683 -1.000000 0.923880
v 0.389458 1.472073 0.940236
v 0.195090 -1.000000 0.980785
v 0.198544 1.472073 0.998149
v -0.000000 -1.000000 1.000000
v -0.000000 1.472073 1.017704
v -0.195091 -1.000000 0.980785
v -0.198545 1.472073 0.998149
v -0.382684 -1.000000 0.923879
v -0.389459 1.472073 0.940236
v -0.555571 -1.000000 0.831469
v -0.565407 1.472073 0.846190
v -0.707107 -1.000000 0.707106
v -0.719626 1.472073 0.719625
v -0.831470 -1.000000 0.555570
v -0.846191 1.472073 0.565406
v -0.923880 -1.000000 0.382683
v -0.940236 1.472073 0.389458
v -0.980785 -1.000000 0.195089
v -0.998149 1.472073 0.198543
v -1.000000 -1.000000 -0.000001
v -1.017704 1.472073 -0.000001
v -0.980785 -1.000000 -0.195091
v -0.998149 1.472073 -0.198545
v -0.923879 -1.000000 -0.382684
v -0.940236 1.472073 -0.389460
v -0.831469 -1.000000 -0.555571
v -0.846189 1.472073 -0.565407
v -0.707106 -1.000000 -0.707108
v -0.719625 1.472073 -0.719626
v -0.555569 -1.000000 -0.831470
v -0.565405 1.472073 -0.846191
v -0.382682 -1.000000 -0.923880
v -0.389457 1.472073 -0.940237
v -0.195089 -1.000000 -0.980786
v -0.198543 1.472073 -0.998150
v 0.210461 0.974137 -1.058057
v -0.000000 0.974137 -1.078786
v 0.412834 0.974137 -0.996668
v 0.599341 0.974137 -0.896978
v 0.762817 0.974137 -0.762817
v 0.896978 0.974137 -0.599341
v 0.996668 0.974137 -0.412833
v 1.058057 0.974137 -0.210461
v 1.078786 0.974137 -0.000000
v 1.058057 0.974137 0.210461
v 0.996668 0.974137 0.412833
v 0.896978 0.974137 0.599341
v 0.762817 0.974137 0.762817
v 0.599341 0.974137 0.896978
v 0.412833 0.974137 0.996668
v 0.210460 0.974137 1.058057
v -0.000000 0.974137 1.078786
v -0.210461 0.974137 1.058057
v -0.412834 0.974137 0.996668
v -0.599342 0.974137 0.896977
v -0.762817 0.974137 0.762816
v -0.896978 0.974137 0.599341
v -0.996669 0.974137 0.412833
v -1.058058 0.974137 0.210460
v -1.078786 0.974137 -0.000001
v -1.058057 0.974137 -0.210462
v -0.996668 0.974137 -0.412835
v -0.896977 0.974137 -0.599342
v -0.762816 0.974137 -0.762818
v -0.599340 0.974137 -0.896978
v -0.412832 0.974137 -0.996669
v -0.210459 0.974137 -1.058058
v 0.210461 1.538606 -1.058057
v -0.000000 1.538606 -1.078786
v 0.412834 1.538606 -0.996668
v 0.599341 1.538606 -0.896978
v 0.762817 1.538606 -0.762817
v 0.896978 1.538606 -0.599341
v 0.996668 1.538606 -0.412833
v 1.058057 1.538606 -0.210461
v 1.078786 1.538606 -0.000000
v 1.058057 1.538606 0.210461
v 0.996668 1.538606 0.412833
v 0.896978 1.538606 0.599341
v 0.762817 1.538606 0.762817
v 0.599341 1.538606 0.896978
v 0.412833 1.538606 0.996668
v 0.210460 1.538606 1.058057
v -0.000000 1.538606 1.078786
v -0.210461 1.538606 1.058057
v -0.412834 1.538606 0.996668
v -0.599342 1.538606 0.896977
v -0.762817 1.538606 0.762816
v -0.896978 1.538606 0.599341
v -0.996669 1.538606 0.412833
v -1.058058 1.538606 0.210460
v -1.078786 1.538606 -0.000001
v -1.058057 1.538606 -0.210462
v -0.996668 1.538606 -0.412835
v -0.896977 1.538606 -0.599342
v -0.762816 1.538606 -0.762818
v -0.599340 1.538606 -0.896978
v -0.412832 1.538606 -0.996669
v -0.210459 1.538606 -1.058058
v -0.000000 -0.817269 -0.943379
v 0.184044 -0.817269 -0.925252
v 0.361016 -0.817269 -0.871569
v 0.524113 -0.817269 -0.784391
v 0.667070 -0.817269 -0.667070
v 0.784391 -0.817269 -0.524113
v 0.871569 -0.817269 -0.361016
v 0.925252 -0.817269 -0.184044
v 0.943379 -0.817269 -0.000000
v 0.925252 -0.817269 0.184044
v 0.871569 -0.817269 0.361015
v 0.784391 -0.817269 0.524113
v 0.667070 -0.817269 0.667070
v 0.524113 -0.817269 0.784391
v 0.361015 -0.817269 0.871569
v 0.184044 -0.817269 0.925252
v -0.000000 -0.817269 0.943379
v -0.184045 -0.817269 0.925252
v -0.361016 -0.817269 0.871569
v -0.524114 -0.817269 0.784391
v -0.667070 -0.817269 0.667069
v -0.784392 -0.817269 0.524113
v -0.871569 -0.817269 0.361015
v -0.925253 -0.817269 0.184043
v -0.943379 -0.817269 -0.000001
v -0.925252 -0.817269 -0.184045
v -0.871568 -0.817269 -0.361017
v -0.784391 -0.817269 -0.524114
v -0.667069 -0.817269 -0.667071
v -0.524112 -0.817269 -0.784392
v -0.361014 -0.817269 -0.871569
v -0.184043 -0.817269 -0.925253
vt 1.000000 0.500000
vt 1.000000 1.000000
vt 0.968750 1.000000
vt 0.968750 0.500000
vt 0.937500 1.000000
vt 0.937500 0.500000
vt 0.906250 1.000000
vt 0.906250 0.500000
vt 0.875000 1.000000
vt 0.875000 0.500000
vt 0.843750 1.000000
vt 0.843750 0.500000
vt 0.812500 1.000000
vt 0.812500 0.500000
vt 0.781250 1.000000
vt 0.781250 0.500000
vt 0.750000 1.000000
vt 0.750000 0.500000
vt 0.718750 1.000000
vt 0.718750 0.500000
vt 0.687500 1.000000
vt 0.687500 0.500000
vt 0.656250 1.000000
vt 0.656250 0.500000
vt 0.625000 1.000000
vt 0.625000 0.500000
vt 0.593750 1.000000
vt 0.593750 0.500000
vt 0.562500 1.000000
vt 0.562500 0.500000
vt 0.531250 1.000000
vt 0.531250 0.500000
vt 0.500000 1.000000
vt 0.500000 0.500000
vt 0.468750 1.000000
vt 0.468750 0.500000
vt 0.437500 1.000000
vt 0.437500 0.500000
vt 0.406250 1.000000
vt 0.406250 0.500000
vt 0.375000 1.000000
vt 0.375000 0.500000
vt 0.343750 1.000000
vt 0.343750 0.500000
vt 0.312500 1.000000
vt 0.312500 0.500000
vt 0.281250 1.000000
vt 0.281250 0.500000
vt 0.250000 1.000000
vt 0.250000 0.500000
vt 0.218750 1.000000
vt 0.218750 0.500000
vt 0.187500 1.000000
vt 0.187500 0.500000
vt 0.156250 1.000000
vt 0.156250 0.500000
vt 0.125000 1.000000
vt 0.125000 0.500000
vt 0.093750 1.000000
vt 0.093750 0.500000
vt 0.062500 1.000000
vt 0.062500 0.500000
vt 0.089903 0.089903
vt 0.124213 0.061746
vt 0.124213 0.061746
vt 0.089903 0.089903
vt 0.031250 1.000000
vt 0.031250 0.500000
vt 0.000000 1.000000
vt 0.000000 0.500000
vt 0.750000 0.490000
vt 0.796822 0.485388
vt 0.841844 0.471731
vt 0.883337 0.449553
vt 0.919706 0.419706
vt 0.949553 0.383337
vt 0.971731 0.341844
vt 0.985388 0.296822
vt 0.990000 0.250000
vt 0.985388 0.203178
vt 0.971731 0.158156
vt 0.949553 0.116663
vt 0.919706 0.080294
vt 0.883337 0.050447
vt 0.841844 0.028269
vt 0.796822 0.014612
vt 0.750000 0.010000
vt 0.703178 0.014612
vt 0.658156 0.028269
vt 0.616663 0.050447
vt 0.580294 0.080294
vt 0.550447 0.116663
vt 0.528269 0.158156
vt 0.514611 0.203179
vt 0.510000 0.250000
vt 0.514612 0.296822
vt 0.528269 0.341844
vt 0.550447 0.383337
vt 0.580295 0.419706
vt 0.616663 0.449553
vt 0.658156 0.471731
vt 0.703179 0.485389
vt 0.250000 0.490000
vt 0.296822 0.485388
vt 0.296822 0.485388
vt 0.250000 0.490000
vt 0.341844 0.471731
vt 0.341844 0.471731
vt 0.383337 0.449553
vt 0.383337 0.449553
vt 0.419706 0.419706
vt 0.419706 0.419706
vt 0.449553 0.383337
vt 0.449553 0.383337
vt 0.471731 0.341844
vt 0.471731 0.341844
vt 0.485388 0.296822
vt 0.485388 0.296822
vt 0.490000 0.250000
vt 0.490000 0.250000
vt 0.485388 0.203178
vt 0.485388 0.203178
vt 0.471731 0.158156
vt 0.471731 0.158156
vt 0.449553 0.116663
vt 0.449553 0.116663
vt 0.419706 0.080294
vt 0.419706 0.080294
vt 0.383337 0.050447
vt 0.383337 0.050447
vt 0.341844 0.028269
vt 0.341844 0.028269
vt 0.296822 0.014612
vt 0.296822 0.014612
vt 0.250000 0.010000
vt 0.250000 0.010000
vt 0.203178 0.014612
vt 0.203178 0.014612
vt 0.158156 0.028269
vt 0.158156 0.028269
vt 0.116663 0.050447
vt 0.116663 0.050447
vt 0.080294 0.080294
vt 0.080294 0.080294
vt 0.050447 0.116663
vt 0.050447 0.116663
vt 0.028269 0.158156
vt 0.028269 0.158156
vt 0.014611 0.203179
vt 0.014611 0.203179
vt 0.010000 0.250000
vt 0.010000 0.250000
vt 0.014612 0.296822
vt 0.014612 0.296822
vt 0.028269 0.341844
vt 0.028269 0.341844
vt 0.050447 0.383337
vt 0.050447 0.383337
vt 0.080295 0.419706
vt 0.080295 0.419706
vt 0.116663 0.449553
vt 0.116663 0.449553
vt 0.158156 0.471731
vt 0.158156 0.471731
vt 0.203179 0.485389
vt 0.203179 0.485389
vt 0.250000 0.476411
vt 0.294171 0.472061
vt 0.336644 0.459177
vt 0.375787 0.438254
vt 0.410097 0.410097
vt 0.438254 0.375787
vt 0.459177 0.336644
vt 0.472061 0.294171
vt 0.476411 0.250000
vt 0.472061 0.205829
vt 0.459176 0.163356
vt 0.438254 0.124213
vt 0.410097 0.089903
vt 0.375787 0.061746
vt 0.336644 0.040823
vt 0.294171 0.027939
vt 0.250000 0.023589
vt 0.205829 0.027939
vt 0.163356 0.040824
vt 0.061746 0.124213
vt 0.040823 0.163356
vt 0.027939 0.205830
vt 0.023589 0.250000
vt 0.027939 0.294171
vt 0.040824 0.336644
vt 0.061746 0.375787
vt 0.089903 0.410097
vt 0.124213 0.438254
vt 0.163357 0.459177
vt 0.205830 0.472061
vt 0.294171 0.472061
vt 0.250000 0.476411
vt 0.205830 0.472061
vt 0.163357 0.459177
vt 0.124213 0.438254
vt 0.089903 0.410097
vt 0.061746 0.375787
vt 0.040824 0.336644
vt 0.027939 0.294171
vt 0.023589 0.250000
vt 0.027939 0.205830
vt 0.040823 0.163356
vt 0.061746 0.124213
vt 0.163356 0.040824
vt 0.205829 0.027939
vt 0.250000 0.023589
vt 0.294171 0.027939
vt 0.336644 0.040823
vt 0.375787 0.061746
vt 0.410097 0.089903
vt 0.438254 0.124213
vt 0.459176 0.163356
vt 0.472061 0.205829
vt 0.476411 0.250000
vt 0.472061 0.294171
vt 0.459177 0.336644
vt 0.438254 0.375787
vt 0.410097 0.410097
vt 0.375787 0.438254
vt 0.336644 0.459177
vn 0.0979 -0.0397 -0.9944
vn 0.2901 -0.0397 -0.9562
vn 0.4710 -0.0397 -0.8812
vn 0.6339 -0.0397 -0.7724
vn 0.7724 -0.0397 -0.6339
vn 0.8812 -0.0397 -0.4710
vn 0.9562 -0.0397 -0.2901
vn 0.9944 -0.0397 -0.0979
vn 0.9944 -0.0397 0.0979
vn 0.9562 -0.0397 0.2901
vn 0.8812 -0.0397 0.4710
vn 0.7724 -0.0397 0.6339
vn 0.6339 -0.0397 0.7724
vn 0.4710 -0.0397 0.8812
vn 0.2901 -0.0397 0.9562
vn 0.0979 -0.0397 0.9944
vn -0.0979 -0.0397 0.9944
vn -0.2901 -0.0397 0.9562
vn -0.4710 -0.0397 0.8812
vn -0.6339 -0.0397 0.7724
vn -0.7724 -0.0397 0.6339
vn -0.8812 -0.0397 0.4710
vn -0.9562 -0.0397 0.2901
vn -0.9944 -0.0397 0.0979
vn -0.9944 -0.0397 -0.0979
vn -0.9562 -0.0397 -0.2901
vn -0.8812 -0.0397 -0.4710
vn -0.7724 -0.0397 -0.6339
vn -0.6339 -0.0397 -0.7724
vn -0.4710 -0.0397 -0.8812
vn 0.6341 0.0323 -0.7726
vn -0.2901 -0.0397 -0.9562
vn -0.0979 -0.0397 -0.9944
vn 0.0000 -1.0000 -0.0000
vn 0.0980 0.0000 -0.9952
vn 0.2903 0.0000 -0.9569
vn 0.4714 0.0000 -0.8819
vn 0.6344 0.0000 -0.7730
vn 0.7730 0.0000 -0.6344
vn 0.8819 0.0000 -0.4714
vn 0.9569 0.0000 -0.2903
vn 0.9952 0.0000 -0.0980
vn 0.9952 0.0000 0.0980
vn 0.9569 0.0000 0.2903
vn 0.8819 0.0000 0.4714
vn 0.7730 0.0000 0.6344
vn 0.6344 0.0000 0.7730
vn 0.4714 0.0000 0.8819
vn 0.2903 0.0000 0.9569
vn 0.0980 0.0000 0.9952
vn -0.0980 0.0000 0.9952
vn -0.2903 0.0000 0.9569
vn -0.4714 0.0000 0.8819
vn -0.6344 0.0000 0.7730
vn -0.7730 0.0000 0.6344
vn -0.8819 0.0000 0.4714
vn -0.9569 0.0000 0.2903
vn -0.9952 0.0000 0.0980
vn -0.9952 0.0000 -0.0980
vn -0.9569 0.0000 -0.2903
vn -0.8819 0.0000 -0.4714
vn -0.7730 0.0000 -0.6344
vn -0.6344 0.0000 -0.7730
vn -0.4714 0.0000 -0.8819
vn -0.2903 0.0000 -0.9569
vn -0.0980 0.0000 -0.9952
vn -0.0724 0.6745 0.7347
vn -0.2143 0.6745 0.7065
vn -0.3480 0.6745 0.6511
vn -0.4683 0.6745 0.5707
vn -0.5707 0.6745 0.4683
vn -0.6511 0.6745 0.3480
vn -0.7065 0.6745 0.2143
vn -0.7347 0.6745 0.0724
vn -0.7347 0.6745 -0.0724
vn -0.7065 0.6745 -0.2143
vn -0.6511 0.6745 -0.3480
vn -0.5707 0.6745 -0.4683
vn -0.4683 0.6745 -0.5707
vn -0.3480 0.6745 -0.6511
vn -0.2143 0.6745 -0.7065
vn -0.0724 0.6745 -0.7347
vn 0.0724 0.6745 -0.7347
vn 0.2143 0.6745 -0.7065
vn 0.3480 0.6745 -0.6511
vn 0.4683 0.6745 -0.5707
vn 0.5707 0.6745 -0.4683
vn 0.6511 0.6745 -0.3480
vn 0.7065 0.6745 -0.2143
vn 0.7347 0.6745 -0.0724
vn 0.7347 0.6745 0.0724
vn 0.7065 0.6745 0.2143
vn 0.6511 0.6745 0.3480
vn 0.5707 0.6745 0.4684
vn 0.4683 0.6745 0.5707
vn 0.3480 0.6745 0.6511
vn 0.2143 0.6745 0.7065
vn 0.0724 0.6745 0.7347
vn 0.0000 1.0000 -0.0000
vn -0.9564 0.0323 0.2901
vn 0.7726 0.0323 -0.6341
vn -0.9947 0.0323 0.0980
vn 0.8815 0.0323 -0.4712
vn -0.9947 0.0323 -0.0980
vn 0.9564 0.0323 -0.2901
vn -0.9564 0.0323 -0.2901
vn 0.9947 0.0323 -0.0980
vn -0.8815 0.0323 -0.4712
vn 0.9947 0.0323 0.0980
vn -0.7726 0.0323 -0.6341
vn 0.9564 0.0323 0.2901
vn -0.6341 0.0323 -0.7726
vn 0.8815 0.0323 0.4712
vn -0.4712 0.0323 -0.8815
vn -0.0980 0.0323 0.9947
vn 0.7726 0.0323 0.6341
vn -0.2901 0.0323 -0.9564
vn -0.2901 0.0323 0.9564
vn 0.6341 0.0323 0.7726
vn -0.0980 0.0323 -0.9947
vn -0.4712 0.0323 0.8815
vn 0.4711 0.0323 0.8815
vn 0.0980 0.0323 -0.9947
vn -0.6341 0.0323 0.7726
vn 0.2901 0.0323 0.9564
vn 0.2901 0.0323 -0.9564
vn -0.7726 0.0323 0.6341
vn 0.0980 0.0323 0.9947
vn 0.4712 0.0323 -0.8815
vn -0.8815 0.0323 0.4712
usemtl Material.001
s off
f 1/1/1 66/2/1 65/3/1 3/4/1
f 3/4/2 65/3/2 67/5/2 5/6/2
f 5/6/3 67/5/3 68/7/3 7/8/3
f 7/8/4 68/7/4 69/9/4 9/10/4
f 9/10/5 69/9/5 70/11/5 11/12/5
f 11/12/6 70/11/6 71/13/6 13/14/6
f 13/14/7 71/13/7 72/15/7 15/16/7
f 15/16/8 72/15/8 73/17/8 17/18/8
f 17/18/9 73/17/9 74/19/9 19/20/9
f 19/20/10 74/19/10 75/21/10 21/22/10
f 21/22/11 75/21/11 76/23/11 23/24/11
f 23/24/12 76/23/12 77/25/12 25/26/12
f 25/26/13 77/25/13 78/27/13 27/28/13
f 27/28/14 78/27/14 79/29/14 29/30/14
f 29/30/15 79/29/15 80/31/15 31/32/15
f 31/32/16 80/31/16 81/33/16 33/34/16
f 33/34/17 81/33/17 82/35/17 35/36/17
f 35/36/18 82/35/18 83/37/18 37/38/18
f 37/38/19 83/37/19 84/39/19 39/40/19
f 39/40/20 84/39/20 85/41/20 41/42/20
f 41/42/21 85/41/21 86/43/21 43/44/21
f 43/44/22 86/43/22 87/45/22 45/46/22
f 45/46/23 87/45/23 88/47/23 47/48/23
f 47/48/24 88/47/24 89/49/24 49/50/24
f 49/50/25 89/49/25 90/51/25 51/52/25
f 51/52/26 90/51/26 91/53/26 53/54/26
f 53/54/27 91/53/27 92/55/27 55/56/27
f 55/56/28 92/55/28 93/57/28 57/58/28
f 57/58/29 93/57/29 94/59/29 59/60/29
f 59/60/30 94/59/30 95/61/30 61/62/30
f 42/63/31 40/64/31 148/65/31 149/66/31
f 61/62/32 95/61/32 96/67/32 63/68/32
f 63/68/33 96/67/33 66/69/33 1/70/33
f 1/71/34 3/72/34 5/73/34 7/74/34 9/75/34 11/76/34 13/77/34 15/78/34 17/79/34 19/80/34 21/81/34 23/82/34 25/83/34 27/84/34 29/85/34 31/86/34 33/87/34 35/88/34 37/89/34 39/90/34 41/91/34 43/92/34 45/93/34 47/94/34 49/95/34 51/96/34 53/97/34 55/98/34 57/99/34 59/100/34 61/101/34 63/102/34
f 98/103/35 97/104/35 65/105/35 66/106/35
f 97/104/36 99/107/36 67/108/36 65/105/36
f 99/107/37 100/109/37 68/110/37 67/108/37
f 100/109/38 101/111/38 69/112/38 68/110/38
f 101/111/39 102/113/39 70/114/39 69/112/39
f 102/113/40 103/115/40 71/116/40 70/114/40
f 103/115/41 104/117/41 72/118/41 71/116/41
f 104/117/42 105/119/42 73/120/42 72/118/42
f 105/119/43 106/121/43 74/122/43 73/120/43
f 106/121/44 107/123/44 75/124/44 74/122/44
f 107/123/45 108/125/45 76/126/45 75/124/45
f 108/125/46 109/127/46 77/128/46 76/126/46
f 109/127/47 110/129/47 78/130/47 77/128/47
f 110/129/48 111/131/48 79/132/48 78/130/48
f 111/131/49 112/133/49 80/134/49 79/132/49
f 112/133/50 113/135/50 81/136/50 80/134/50
f 113/135/51 114/137/51 82/138/51 81/136/51
f 114/137/52 115/139/52 83/140/52 82/138/52
f 115/139/53 116/141/53 84/142/53 83/140/53
f 116/141/54 117/143/54 85/144/54 84/142/54
f 117/143/55 118/145/55 86/146/55 85/144/55
f 118/145/56 119/147/56 87/148/56 86/146/56
f 119/147/57 120/149/57 88/150/57 87/148/57
f 120/149/58 121/151/58 89/152/58 88/150/58
f 121/151/59 122/153/59 90/154/59 89/152/59
f 122/153/60 123/155/60 91/156/60 90/154/60
f 123/155/61 124/157/61 92/158/61 91/156/61
f 124/157/62 125/159/62 93/160/62 92/158/62
f 125/159/63 126/161/63 94/162/63 93/160/63
f 126/161/64 127/163/64 95/164/64 94/162/64
f 127/163/65 128/165/65 96/166/65 95/164/65
f 128/165/66 98/103/66 66/106/66 96/166/66
f 2/167/67 4/168/67 97/104/67 98/103/67
f 4/168/68 6/169/68 99/107/68 97/104/68
f 6/169/69 8/170/69 100/109/69 99/107/69
f 8/170/70 10/171/70 101/111/70 100/109/70
f 10/171/71 12/172/71 102/113/71 101/111/71
f 12/172/72 14/173/72 103/115/72 102/113/72
f 14/173/73 16/174/73 104/117/73 103/115/73
f 16/174/74 18/175/74 105/119/74 104/117/74
f 18/175/75 20/176/75 106/121/75 105/119/75
f 20/176/76 22/177/76 107/123/76 106/121/76
f 22/177/77 24/178/77 108/125/77 107/123/77
f 24/178/78 26/179/78 109/127/78 108/125/78
f 26/179/79 28/180/79 110/129/79 109/127/79
f 28/180/80 30/181/80 111/131/80 110/129/80
f 30/181/81 32/182/81 112/133/81 111/131/81
f 32/182/82 34/183/82 113/135/82 112/133/82
f 34/183/83 36/184/83 114/137/83 113/135/83
f 36/184/84 38/185/84 115/139/84 114/137/84
f 38/185/85 40/64/85 116/141/85 115/139/85
f 40/64/86 42/63/86 117/143/86 116/141/86
f 42/63/87 44/186/87 118/145/87 117/143/87
f 44/186/88 46/187/88 119/147/88 118/145/88
f 46/187/89 48/188/89 120/149/89 119/147/89
f 48/188/90 50/189/90 121/151/90 120/149/90
f 50/189/91 52/190/91 122/153/91 121/151/91
f 52/190/92 54/191/92 123/155/92 122/153/92
f 54/191/93 56/192/93 124/157/93 123/155/93
f 56/192/94 58/193/94 125/159/94 124/157/94
f 58/193/95 60/194/95 126/161/95 125/159/95
f 60/194/96 62/195/96 127/163/96 126/161/96
f 62/195/97 64/196/97 128/165/97 127/163/97
f 64/196/98 2/167/98 98/103/98 128/165/98
f 130/197/99 129/198/99 160/199/99 159/200/99 158/201/99 157/202/99 156/203/99 155/204/99 154/205/99 153/206/99 152/207/99 151/208/99 150/209/99 149/66/99 148/65/99 147/210/99 146/211/99 145/212/99 144/213/99 143/214/99 142/215/99 141/216/99 140/217/99 139/218/99 138/219/99 137/220/99 136/221/99 135/222/99 134/223/99 133/224/99 132/225/99 131/226/99
f 16/174/100 14/173/100 135/222/100 136/221/100
f 44/186/101 42/63/101 149/66/101 150/209/101
f 18/175/102 16/174/102 136/221/102 137/220/102
f 46/187/103 44/186/103 150/209/103 151/208/103
f 20/176/104 18/175/104 137/220/104 138/219/104
f 48/188/105 46/187/105 151/208/105 152/207/105
f 22/177/106 20/176/106 138/219/106 139/218/106
f 50/189/107 48/188/107 152/207/107 153/206/107
f 24/178/108 22/177/108 139/218/108 140/217/108
f 52/190/109 50/189/109 153/206/109 154/205/109
f 26/179/110 24/178/110 140/217/110 141/216/110
f 54/191/111 52/190/111 154/205/111 155/204/111
f 28/180/112 26/179/112 141/216/112 142/215/112
f 56/192/113 54/191/113 155/204/113 156/203/113
f 30/181/114 28/180/114 142/215/114 143/214/114
f 4/168/115 2/167/115 129/198/115 130/197/115
f 58/193/116 56/192/116 156/203/116 157/202/116
f 32/182/117 30/181/117 143/214/117 144/213/117
f 6/169/118 4/168/118 130/197/118 131/226/118
f 60/194/119 58/193/119 157/202/119 158/201/119
f 34/183/120 32/182/120 144/213/120 145/212/120
f 8/170/121 6/169/121 131/226/121 132/225/121
f 62/195/122 60/194/122 158/201/122 159/200/122
f 36/184/123 34/183/123 145/212/123 146/211/123
f 10/171/124 8/170/124 132/225/124 133/224/124
f 64/196/125 62/195/125 159/200/125 160/199/125
f 38/185/126 36/184/126 146/211/126 147/210/126
f 12/172/127 10/171/127 133/224/127 134/223/127
f 2/167/128 64/196/128 160/199/128 129/198/128
f 40/64/129 38/185/129 147/210/129 148/65/129
f 14/173/130 12/172/130 134/223/130 135/222/130
